<svg xmlns="http://www.w3.org/2000/svg" width="720" height="600" viewBox="0 0 720 600" font-family="-apple-system, 'SF Pro Text', Helvetica, Arial, sans-serif">
  <defs>
    <linearGradient id="winD" x1="0" y1="0" x2="0" y2="1">
      <stop offset="0" stop-color="#2b2d31"/>
      <stop offset="1" stop-color="#232529"/>
    </linearGradient>
    <radialGradient id="glowD" cx="50%" cy="50%" r="50%">
      <stop offset="0" stop-color="#32d74b" stop-opacity="0.40"/>
      <stop offset="0.65" stop-color="#32d74b" stop-opacity="0.12"/>
      <stop offset="1" stop-color="#32d74b" stop-opacity="0"/>
    </radialGradient>
    <linearGradient id="knobD" x1="0" y1="0" x2="0" y2="1">
      <stop offset="0" stop-color="#2f3a31"/>
      <stop offset="1" stop-color="#28312a"/>
    </linearGradient>
    <filter id="wsD" x="-10%" y="-10%" width="120%" height="120%">
      <feDropShadow dx="0" dy="10" stdDeviation="18" flood-color="#000" flood-opacity="0.45"/>
    </filter>
    <filter id="knobshD" x="-40%" y="-40%" width="180%" height="180%">
      <feDropShadow dx="0" dy="3" stdDeviation="8" flood-color="#32d74b" flood-opacity="0.35"/>
    </filter>
  </defs>
  <rect width="720" height="600" fill="#15161a"/>

  <g filter="url(#wsD)">
    <rect x="40" y="24" width="640" height="552" rx="12" fill="url(#winD)" stroke="#3a3d43"/>
  </g>

  <!-- titlebar -->
  <rect x="40" y="24" width="640" height="40" rx="12" fill="#313337"/>
  <rect x="40" y="52" width="640" height="12" fill="#313337"/>
  <circle cx="62" cy="44" r="6" fill="#ff5f57"/>
  <circle cx="82" cy="44" r="6" fill="#febc2e"/>
  <circle cx="102" cy="44" r="6" fill="#28c840"/>
  <text x="360" y="48" font-size="13" font-weight="700" fill="#c9ccd2" text-anchor="middle">Tunnel Proxy</text>

  <!-- ===== TAB STRIP (Connection selected) ===== -->
  <rect x="40" y="64" width="640" height="56" fill="#26282c"/>
  <line x1="40" y1="120" x2="680" y2="120" stroke="#34373d"/>
  <rect x="52" y="74" width="90" height="38" rx="7" fill="#3a3d43"/>
  <g text-anchor="middle" font-size="10.5">
    <circle cx="97" cy="87" r="8" fill="none" stroke="#5aa0ff" stroke-width="1.6"/>
    <line x1="97" y1="82" x2="97" y2="88" stroke="#5aa0ff" stroke-width="1.6"/>
    <text x="97" y="107" fill="#5aa0ff" font-weight="700">Connection</text>
    <rect x="176" y="80" width="18" height="14" rx="3" fill="none" stroke="#9aa1ac" stroke-width="1.6"/>
    <text x="185" y="107" fill="#a9b0ba">Servers</text>
    <circle cx="262" cy="87" r="7" fill="none" stroke="#9aa1ac" stroke-width="1.6"/>
    <line x1="255" y1="87" x2="269" y2="87" stroke="#9aa1ac" stroke-width="1.2"/>
    <text x="262" y="107" fill="#a9b0ba">Tunnel</text>
    <rect x="333" y="79" width="13" height="16" rx="2" fill="none" stroke="#9aa1ac" stroke-width="1.6"/>
    <text x="339" y="107" fill="#a9b0ba">Logs</text>
    <g fill="#9aa1ac"><rect x="401" y="87" width="4" height="8"/><rect x="408" y="83" width="4" height="12"/><rect x="415" y="80" width="4" height="15"/></g>
    <text x="410" y="107" fill="#a9b0ba">Stats</text>
    <circle cx="486" cy="86" r="5" fill="none" stroke="#9aa1ac" stroke-width="1.6"/>
    <circle cx="495" cy="91" r="4" fill="none" stroke="#9aa1ac" stroke-width="1.4"/>
    <text x="490" y="107" fill="#a9b0ba">Advanced</text>
    <path d="M566 80 l6 6 -4 4 -6 -6 z" fill="none" stroke="#9aa1ac" stroke-width="1.6"/>
    <text x="570" y="107" fill="#a9b0ba">Tools</text>
    <circle cx="636" cy="87" r="8" fill="none" stroke="#9aa1ac" stroke-width="1.6"/>
    <text x="636" y="91" font-size="11" font-weight="800" fill="#9aa1ac">i</text>
    <text x="636" y="107" fill="#a9b0ba">About</text>
  </g>

  <!-- ===== CONNECTION CONTENT ===== -->
  <circle cx="360" cy="238" r="118" fill="url(#glowD)"/>
  <circle cx="360" cy="238" r="66" fill="none" stroke="#2c3630" stroke-width="12"/>
  <circle cx="360" cy="238" r="66" fill="none" stroke="#32d74b" stroke-width="12" stroke-linecap="round"/>
  <circle cx="360" cy="238" r="52" fill="url(#knobD)" filter="url(#knobshD)"/>
  <path d="M341 222 a24 24 0 1 0 38 0" fill="none" stroke="#5fe878" stroke-width="5" stroke-linecap="round"/>
  <line x1="360" y1="212" x2="360" y2="240" stroke="#5fe878" stroke-width="5" stroke-linecap="round"/>

  <text x="360" y="345" font-size="24" font-weight="800" fill="#eaf1fb" text-anchor="middle">Connected</text>
  <text x="360" y="368" font-size="13" fill="#9db4d0" text-anchor="middle">Tunnel + HTTP proxy active</text>

  <rect x="256" y="384" width="208" height="38" rx="10" fill="#2e3035" stroke="#2f4a37"/>
  <circle cx="278" cy="403" r="4" fill="#32d74b"/>
  <text x="292" y="400" font-size="9.5" fill="#8a93a0">EXIT IP</text>
  <text x="292" y="414" font-size="13" font-weight="700" fill="#7fb3ff" font-family="'SF Mono', Menlo, monospace">203.0.113.47</text>
  <text x="256" y="452" font-size="11.5" fill="#8a93a0">Server</text>
  <rect x="304" y="438" width="160" height="26" rx="6" fill="#242629" stroke="#43464d"/>
  <text x="318" y="455" font-size="12" font-weight="600" fill="#dfe2e8">server-a</text>
  <text x="448" y="455" font-size="11" fill="#9aa1ac">▾</text>

  <text x="200" y="490" font-size="11" font-weight="700" fill="#7f8794" letter-spacing="0.4">QUICK OPTIONS</text>
  <rect x="200" y="500" width="320" height="72" rx="10" fill="#2e3035" stroke="#3a3d43"/>
  <text x="216" y="524" font-size="12.5" fill="#dfe2e8">Route Mac traffic through proxy</text>
  <rect x="468" y="514" width="40" height="22" rx="11" fill="#32d74b"/><circle cx="497" cy="525" r="9" fill="#fff"/>
  <line x1="216" y1="544" x2="504" y2="544" stroke="#37393f"/>
  <text x="216" y="564" font-size="12.5" fill="#dfe2e8">Auto-reconnect (watchdog)</text>
  <rect x="468" y="554" width="40" height="22" rx="11" fill="#32d74b"/><circle cx="497" cy="565" r="9" fill="#fff"/>

  <text x="24" y="592" fill="#5f6572" font-size="12.5" font-weight="600">Connection tab (Dark, adaptive proof) — ring/glow use accent + statusColor; no hard-coded light values</text>
</svg>
